<svg version="1.1" xmlns="http://www.w3.org/2000/svg" xmlns:xlink="http://www.w3.org/1999/xlink" width="72.89754" height="59.23049" viewBox="0,0,72.89754,59.23049"><g transform="translate(-203.42608,-150.89132)"><g data-paper-data="{&quot;isPaintingLayer&quot;:true}" fill-rule="nonzero" stroke-linejoin="miter" stroke-miterlimit="10" stroke-dasharray="" stroke-dashoffset="0" style="mix-blend-mode: normal"><path d="M217.06258,190.56877l-12.17868,-4.87757l9.30248,-15.61795l7.6401,11.67151z" fill="#b3b3b3" stroke="#000000" stroke-width="2" stroke-linecap="butt"/><path d="M240.78278,171.3379l-5.54656,-11.47565l13.7708,-6.12035v16.44844z" fill="#b3b3b3" stroke="#000000" stroke-width="2" stroke-linecap="butt"/><path d="M275.11611,191.17925l-12.17172,13.93728l-20.97056,3.99215l-18.69021,-2.59799l-13.58276,-14.02748l5.42206,-14.47139l9.12142,-7.73517l18.11202,-8.55358l21.48153,8.36213z" fill="#b3b3b3" stroke="#000000" stroke-width="2" stroke-linecap="butt"/><path d="M253.08528,184.9907c0,0.7759 -0.40026,1.40489 -0.89402,1.40489c-0.49375,0 -0.89402,-0.62899 -0.89402,-1.40489c0,-0.7759 0.40026,-1.40489 0.89402,-1.40489c0.49375,0 0.89402,0.62899 0.89402,1.40489z" fill="#50ff3d" stroke="#000000" stroke-width="2" stroke-linecap="butt"/><path d="M264.20019,184.10013c0,0.77591 -0.40026,1.40489 -0.89402,1.40489c-0.49375,0 -0.89402,-0.62899 -0.89402,-1.40489c0,-0.77591 0.40028,-1.4049 0.89402,-1.4049c0.49375,0 0.89402,0.62899 0.89402,1.4049z" fill="#50ff3d" stroke="#000000" stroke-width="2" stroke-linecap="butt"/><path d="M227.39449,193.90669l-4.97278,-5.92909l3.82523,-6.50288l10.51936,-0.95629l4.20775,6.69413l-4.01647,5.9291z" fill="none" stroke="#000000" stroke-width="2" stroke-linecap="round"/><g><path d="M220.38487,166.84221l9.3177,-7.2544l2.92172,14.40266l-7.51814,-0.85217z" fill="#b3b3b3" stroke="none" stroke-width="0" stroke-linecap="butt"/><path d="M225.79601,172.63262l-4.62452,-7.32149l9.14758,-7.3418l2.66421,14.48536" fill="none" stroke="#000000" stroke-width="2" stroke-linecap="round"/></g><g><path d="M251.87592,174.79041l2.4864,-14.54565l15.66161,6.88539l-5.92909,10.72042z" fill="#b3b3b3" stroke="none" stroke-width="0" stroke-linecap="butt"/><path d="M251.87594,174.20682l0.95631,-9.56305l0.76505,-4.78153l16.83097,7.45918l-6.31162,9.94557" fill="none" stroke="#000000" stroke-width="2" stroke-linecap="round"/></g><path d="M251.791,202.72017l-2.55817,-3.72686l1.96782,-4.08753l5.4115,-0.6011l2.1646,4.20773l-2.0662,3.72686z" fill="none" stroke="#000000" stroke-width="2" stroke-linecap="round"/><path d="M250.74671,151.25549c0,-0.20112 0.16305,-0.36417 0.36417,-0.36417c0.20112,0 0.36417,0.16305 0.36417,0.36417c0,0.20112 -0.16305,0.36417 -0.36417,0.36417c-0.20112,0 -0.36417,-0.16305 -0.36417,-0.36417z" fill="#000000" stroke="none" stroke-width="0.5" stroke-linecap="butt"/></g></g></svg>