<svg version="1.1" xmlns="http://www.w3.org/2000/svg" xmlns:xlink="http://www.w3.org/1999/xlink" width="65.2496" height="37.25329" viewBox="0,0,65.2496,37.25329"><g transform="translate(-214.17005,-166.02009)"><g data-paper-data="{&quot;isPaintingLayer&quot;:true}" fill-rule="nonzero" stroke-linejoin="miter" stroke-miterlimit="10" stroke-dasharray="" stroke-dashoffset="0" style="mix-blend-mode: normal"><g stroke="#000000" stroke-width="2"><path d="M269.14721,181.29151c-1.11355,-0.36632 -6.84027,0.45721 -6.84027,0.45721c0,0 -2.79795,-2.64002 -4.30524,-3.23859c-2.46607,-0.97933 -6.99792,0.35351 -6.99792,0.35351l-1.83731,-5.94534l26.57354,1.65498l2.15351,14.10085c0,0 -5.23621,-6.22791 -8.74632,-7.38261z" data-paper-data="{&quot;index&quot;:null}" fill="#4bff79" stroke-linecap="butt"/><path d="M267.6345,174.05997l-5.61112,7.14628" data-paper-data="{&quot;index&quot;:null}" fill="none" stroke-linecap="round"/><path d="M251.35621,178.07828l5.94309,-3.95847" data-paper-data="{&quot;index&quot;:null}" fill="none" stroke-linecap="round"/></g><path d="M256.40856,177.46556c0,5.76887 -4.46593,10.44546 -9.97494,10.44546c-5.50902,0 -9.97494,-4.67659 -9.97494,-10.44546c0,-5.76887 4.46592,-10.44546 9.97494,-10.44546c5.50902,0 9.97494,4.67659 9.97494,10.44546z" fill="#4bff79" stroke="#000000" stroke-width="2" stroke-linecap="butt"/><g stroke="#000000" stroke-width="2"><path d="M217.87044,199.51629l-2.57247,-14.02938l23.98002,-10.20728l0.22729,6.21747c0,0 -4.61175,0.21409 -6.57015,1.94188c-1.197,1.05604 -2.92463,4.46156 -2.92463,4.46156c0,0 -5.54938,1.08413 -6.45823,1.79258c-2.86487,2.23314 -5.68183,9.82317 -5.68183,9.82317z" data-paper-data="{&quot;index&quot;:null}" fill="#4bff79" stroke-linecap="butt"/><path d="M222.60967,182.36543l7.48704,4.9301" fill="none" stroke-linecap="round"/><path d="M238.92623,180.86935l-6.7626,-1.80883" fill="none" stroke-linecap="round"/></g><path d="M247.43127,177.26194c0,1.72276 -0.69829,3.11933 -1.55967,3.11933c-0.86138,0 -1.55967,-1.39657 -1.55967,-3.11933c0,-1.72276 0.69829,-3.11933 1.55967,-3.11933c0.86138,0 1.55967,1.39657 1.55967,3.11933z" fill="#000000" stroke="none" stroke-width="0" stroke-linecap="butt"/><path d="M253.40606,176.21824c0,1.72276 -0.69828,3.11933 -1.55966,3.11933c-0.86138,0 -1.55966,-1.39657 -1.55966,-3.11933c0,-1.72276 0.69828,-3.11933 1.55966,-3.11933c0.86138,0 1.55966,1.39657 1.55966,3.11933z" fill="#000000" stroke="none" stroke-width="0" stroke-linecap="butt"/></g></g></svg>