<svg version="1.1" xmlns="http://www.w3.org/2000/svg" xmlns:xlink="http://www.w3.org/1999/xlink" width="24.46601" height="28.71544" viewBox="0,0,24.46601,28.71544"><g transform="translate(-227.87451,-168.50664)"><g data-paper-data="{&quot;isPaintingLayer&quot;:true}" fill-rule="nonzero" stroke-linejoin="miter" stroke-miterlimit="10" stroke-dasharray="" stroke-dashoffset="0" style="mix-blend-mode: normal"><path d="M241.19397,193.42845l9.85206,-19.07189l0.72141,-5.21068l-11.60179,-0.13409c0,0 -0.32535,2.64697 1.50335,4.36635c2.31834,2.17975 3.52884,1.69212 4.71798,1.70773c1.31576,0.01727 2.59167,-0.44143 3.8157,-1.80553c1.76025,-1.96168 1.56475,-4.13446 1.56475,-4.13446" fill="none" stroke="#845d15" stroke-width="1" stroke-linecap="round"/><path d="M228.69431,190.47207l11.35643,-21.30025l11.25496,0.09606l-11.1169,21.56031z" fill="#ab843a" stroke="#845d15" stroke-width="1" stroke-linecap="butt"/><path d="M241.35,190.9625l9.8403,-19.375" fill="none" stroke="#ab843a" stroke-width="1" stroke-linecap="round"/><path d="M248.6,176.9l-7,13.25" fill="none" stroke="#ab843a" stroke-width="1" stroke-linecap="round"/><path d="M240.85,192.65l0.47959,-1.3125l9.20791,-17.9375" fill="none" stroke="#ab843a" stroke-width="1" stroke-linecap="round"/><path d="M242.1,190.0875l-0.75,0.4375" fill="none" stroke="#ab843a" stroke-width="1" stroke-linecap="round"/><path d="M240.2875,193.65l0.8125,-1.8125" fill="none" stroke="#ab843a" stroke-width="0.5" stroke-linecap="round"/><path d="M241.5375,191.65l1.4375,-2.75" fill="none" stroke="#ab843a" stroke-width="0.5" stroke-linecap="round"/><path d="M243.975,185.15l2.6875,-5.4375" fill="none" stroke="#ab843a" stroke-width="0.5" stroke-linecap="round"/><path d="M246.225,180.775l1.6875,-3.5" fill="none" stroke="#ab843a" stroke-width="0.5" stroke-linecap="round"/><path d="M240.36744,190.74587l-11.60179,-0.13409c0,0 -0.32535,2.64697 1.50335,4.36635c2.31834,2.17975 3.52884,1.69212 4.71798,1.70773c1.31576,0.01727 2.59167,-0.44143 3.8157,-1.80553c1.76025,-1.96168 1.56475,-4.13446 1.56475,-4.13446" fill="#ab843a" stroke="#845d15" stroke-width="1" stroke-linecap="round"/><path d="M241.4285,192.94755c0.4083,0.28861 0.11969,0.6969 0.11969,0.6969l-0.32653,0.46194c-0.89936,1.22071 -2.16453,1.94082 -3.63475,2.19331c0,0 -0.49278,0.08463 -0.57742,-0.40815c-0.08463,-0.49278 0.40815,-0.57742 0.40815,-0.57742c1.17982,-0.20262 2.29874,-0.74668 2.98743,-1.78496l0.32653,-0.46193c0,0 0.28861,-0.4083 0.6969,-0.11969z" fill="#845d15" stroke="none" stroke-width="0.5" stroke-linecap="butt"/><path d="M251.7875,169.5875l-0.4375,4.3125" fill="none" stroke="#845d15" stroke-width="1" stroke-linecap="round"/><path d="M240.12989,193.87011c-0.17677,-0.17677 0,-0.35356 0,-0.35356l0.06667,-0.06667c0.20725,-0.19055 0.51319,-0.55303 0.61984,-0.8017c0,0 0.11181,-0.2236 0.33541,-0.1118c0.2236,0.11181 0.1118,0.33541 0.1118,0.33541c-0.18853,0.34704 -0.44016,0.64374 -0.7135,0.93164l-0.06667,0.06667c0,0 -0.17678,0.17677 -0.35356,0z" fill="#ab843a" stroke="none" stroke-width="0.5" stroke-linecap="butt"/><path d="M250.84,173.89334l0.2,-2.73334" fill="none" stroke="#ab843a" stroke-width="0.5" stroke-linecap="round"/><path d="M242.71667,180.45l3.16837,-5.75" fill="none" stroke="#845d15" stroke-width="1" stroke-linecap="round"/><path d="M237.55,177.78334l4.5,-8.16667" fill="none" stroke="#845d15" stroke-width="1" stroke-linecap="round"/><path d="M237.66667,184.46914l6.91667,-12.55248" fill="none" stroke="#845d15" stroke-width="1" stroke-linecap="round"/><path d="M233.67194,187.78238l7.00614,-12.39074" fill="none" stroke="#845d15" stroke-width="1" stroke-linecap="round"/><path d="M237.21667,190.61976l3.58333,-6.50309" fill="none" stroke="#845d15" stroke-width="1" stroke-linecap="round"/><path d="M230.21667,190.61667l3.5,-6.35185" fill="none" stroke="#845d15" stroke-width="1" stroke-linecap="round"/><path d="M231.78182,194.4c0,0 0.74175,0.86 1.84801,0.88001c0.8835,0.43336 1.93985,-0.24365 2.33381,-0.24365c0.62044,0 1.30894,-0.79785 2.032,-1.51474c0.74371,-0.73737 0.968,-2.12162 0.968,-2.12162" fill="none" stroke="#845d15" stroke-width="1" stroke-linecap="round"/><path d="M237.26333,192.38764c0,0 -0.57847,0.97733 -1.66386,1.19211c-0.79324,0.58238 -1.95242,0.10226 -2.3402,0.17174c-0.61072,0.10941 -1.42913,-0.55452 -2.26728,-1.13266c-0.86209,-0.59466 -1.32697,-1.91767 -1.32697,-1.91767" data-paper-data="{&quot;index&quot;:null}" fill="none" stroke="#845d15" stroke-width="1" stroke-linecap="round"/><path d="M235.34877,192.05122c0,0 -0.23929,0.38858 -0.67688,0.46722c-0.3228,0.22839 -0.78513,0.02733 -0.94142,0.05251c-0.24614,0.03966 -0.57026,-0.23285 -0.90293,-0.47104c-0.34216,-0.24499 -0.51961,-0.7798 -0.51961,-0.7798" data-paper-data="{&quot;index&quot;:null}" fill="none" stroke="#845d15" stroke-width="1" stroke-linecap="round"/></g></g></svg>