<svg version="1.1" xmlns="http://www.w3.org/2000/svg" xmlns:xlink="http://www.w3.org/1999/xlink" width="111.22759" height="145.93095" viewBox="0,0,111.22759,145.93095"><defs><radialGradient cx="274.25941" cy="101.04777" r="27.66616" gradientUnits="userSpaceOnUse" id="color-1"><stop offset="0" stop-color="#ffffff"/><stop offset="1" stop-color="#ffffff"/></radialGradient></defs><g transform="translate(-191.60905,-42.25)"><g data-paper-data="{&quot;isPaintingLayer&quot;:true}" fill-rule="nonzero" stroke-linecap="butt" stroke-linejoin="miter" stroke-miterlimit="10" stroke-dasharray="" stroke-dashoffset="0" style="mix-blend-mode: normal"><g stroke="#000000"><path d="M234.53084,124.21478l20.87249,-14.15745l3.54904,5.32566l-20.87248,14.15746z" fill="#ffffff" stroke-width="1"/><path d="M289.31504,123.89369c-12.75833,8.40781 -29.84164,4.99523 -38.15662,-7.62223c-8.31498,-12.61746 -4.71293,-29.66182 8.04539,-38.06964c12.75833,-8.40782 29.84161,-4.99522 38.15659,7.62224c8.31498,12.61746 4.71296,29.6618 -8.04537,38.06962z" fill="url(#color-1)" stroke-width="2"/><path d="M269.84232,104.42242c-1.28734,-1.95346 -0.72967,-4.5923 1.2456,-5.89402c1.97527,-1.30172 4.62014,-0.77337 5.90748,1.18009c1.28734,1.95347 0.72967,4.5923 -1.2456,5.89402c-1.97526,1.30171 -4.62014,0.77337 -5.90748,-1.18009z" fill="#ff0000" stroke-width="1"/><path d="M274.19531,103.24366c-0.69173,0.45586 -1.59739,0.30202 -2.02286,-0.34359c-0.42547,-0.64561 -0.20961,-1.53853 0.48212,-1.99438c0.69173,-0.45586 1.59739,-0.30202 2.02286,0.34359c0.42547,0.64561 0.20961,1.53853 -0.48212,1.99438z" fill="#000000" stroke-width="1"/></g><path d="" fill="#ffffff" stroke="none" stroke-width="0.5"/><path d="" fill="#ffffff" stroke="none" stroke-width="0.5"/><path d="" fill="#ffffff" stroke="none" stroke-width="0.5"/><path d="" fill="#ffffff" stroke="none" stroke-width="0.5"/><path d="" fill="#ffffff" stroke="none" stroke-width="0.5"/><path d="" fill="#ffffff" stroke="none" stroke-width="0.5"/><path d="" fill="#ffffff" stroke="none" stroke-width="0.5"/><path d="" fill="#ffffff" stroke="none" stroke-width="0.5"/><path d="" fill="#ffffff" stroke="none" stroke-width="0.5"/><path d="" fill="#ffffff" stroke="none" stroke-width="0.5"/><path d="M193.40305,187.18095l9.33333,-15.09524h80.92722l8,15.09524z" fill="#ffffff" stroke="#000000" stroke-width="2"/><g fill="#ffffff" stroke="#000000" stroke-width="1"><path d="M259.53104,140.5247l-22.31917,-11.74514l3.02658,-5.63897l22.31919,11.74515z"/><path d="M241.50989,127.5222c-1.11695,2.05564 -3.70747,2.80647 -5.78606,1.67704c-2.07858,-1.12944 -2.85814,-3.71145 -1.74117,-5.76709c1.11696,-2.05563 3.70747,-2.80647 5.78606,-1.67704c2.07858,1.12944 2.85814,3.71145 1.74117,5.76709z"/><path d="M238.41996,124.23735c0.7279,0.39552 1.01874,1.2669 0.64958,1.94629c-0.36916,0.67939 -1.25851,0.9095 -1.98641,0.51397c-0.7279,-0.39552 -1.01874,-1.2669 -0.64958,-1.94629c0.36916,-0.67939 1.25851,-0.9095 1.98641,-0.51397z"/></g><g fill="#ffffff" stroke="#000000" stroke-width="1"><path d="M255.1583,162.9009l2.26341,-25.11915l6.36913,0.62647l-2.26341,25.11915z"/><path d="M264.8893,137.44202c-0.24367,2.35303 -2.32765,4.0652 -4.6547,3.82422c-2.32707,-0.24097 -4.01598,-2.34384 -3.77232,-4.69687c0.24367,-2.35303 2.32765,-4.0652 4.6547,-3.82422c2.32707,0.24097 4.01598,2.34383 3.77232,4.69687z"/><path d="M262.07932,137.15104c-0.08533,0.82402 -0.77797,1.42746 -1.54706,1.34782c-0.7691,-0.07965 -1.32338,-0.81221 -1.23806,-1.63623c0.08533,-0.82402 0.77797,-1.42746 1.54706,-1.34782c0.7691,0.07965 1.32338,0.81221 1.23806,1.63623z"/></g><g fill="#ffffff" stroke="#000000" stroke-width="1"><path d="M237.81397,176.80223l18.69243,-16.93185l4.25755,4.77824l-18.69243,16.93185z"/><path d="M256.21211,164.33885c-1.54737,-1.75469 -1.36342,-4.44553 0.41085,-6.01017c1.77427,-1.56464 4.46699,-1.41059 6.01436,0.3441c1.54737,1.75469 1.36342,4.44553 -0.41085,6.01017c-1.77427,1.56464 -4.46699,1.41059 -6.01436,-0.3441z"/><path d="M260.35799,162.56414c-0.62134,0.54793 -1.53961,0.522 -2.05101,-0.05792c-0.51141,-0.57992 -0.42227,-1.49422 0.19906,-2.04214c0.62134,-0.54793 1.53961,-0.522 2.05101,0.05792c0.51141,0.57992 0.42227,1.49422 -0.19906,2.04214z"/></g><path d="M247.9895,42.5c0,-0.13807 0.11193,-0.25 0.25,-0.25c0.13807,0 0.25,0.11193 0.25,0.25c0,0.13807 -0.11193,0.25 -0.25,0.25c-0.13807,0 -0.25,-0.11193 -0.25,-0.25z" fill="#000000" stroke="none" stroke-width="0.5"/></g></g></svg>