<svg version="1.1" xmlns="http://www.w3.org/2000/svg" xmlns:xlink="http://www.w3.org/1999/xlink" width="106.1595" height="145.93095" viewBox="0,0,106.1595,145.93095"><defs><radialGradient cx="269.1128" cy="122.69247" r="27.66616" gradientUnits="userSpaceOnUse" id="color-1"><stop offset="0" stop-color="#ffffff"/><stop offset="1" stop-color="#ffffff"/></radialGradient></defs><g transform="translate(-191.60904,-42.25)"><g data-paper-data="{&quot;isPaintingLayer&quot;:true}" fill-rule="nonzero" stroke-linecap="butt" stroke-linejoin="miter" stroke-miterlimit="10" stroke-dasharray="" stroke-dashoffset="0" style="mix-blend-mode: normal"><g stroke="#000000"><path d="M223.88374,131.02323l24.43544,-6.24527l1.53398,6.21331l-24.43544,6.24528z" fill="#ffffff" stroke-width="1"/><path d="M275.53424,149.28896c-14.85283,3.58604 -29.76841,-5.41455 -33.31486,-20.10338c-3.54645,-14.68884 5.61919,-29.50356 20.47202,-33.08961c14.85283,-3.58605 29.76838,5.41455 33.31483,20.10338c3.54645,14.68884 -5.61916,29.50355 -20.47199,33.0896z" fill="url(#color-1)" stroke-width="2"/><path d="M263.81339,124.37032c-0.54907,-2.27415 0.86997,-4.5678 3.16952,-5.123c2.29955,-0.5552 4.6088,0.83829 5.15787,3.11245c0.54906,2.27416 -0.86997,4.5678 -3.16952,5.123c-2.29954,0.5552 -4.6088,-0.83829 -5.15787,-3.11245z" fill="#ff0000" stroke-width="1"/><path d="M268.30825,124.73667c-0.80529,0.19443 -1.60521,-0.25725 -1.78668,-1.00885c-0.18147,-0.7516 0.32424,-1.51851 1.12953,-1.71294c0.80529,-0.19443 1.60521,0.25725 1.78668,1.00885c0.18147,0.7516 -0.32424,1.51851 -1.12953,1.71294z" fill="#000000" stroke-width="1"/></g><path d="" fill="#ffffff" stroke="none" stroke-width="0.5"/><path d="" fill="#ffffff" stroke="none" stroke-width="0.5"/><path d="" fill="#ffffff" stroke="none" stroke-width="0.5"/><path d="" fill="#ffffff" stroke="none" stroke-width="0.5"/><path d="" fill="#ffffff" stroke="none" stroke-width="0.5"/><path d="" fill="#ffffff" stroke="none" stroke-width="0.5"/><path d="" fill="#ffffff" stroke="none" stroke-width="0.5"/><path d="" fill="#ffffff" stroke="none" stroke-width="0.5"/><path d="" fill="#ffffff" stroke="none" stroke-width="0.5"/><path d="" fill="#ffffff" stroke="none" stroke-width="0.5"/><path d="M193.40305,187.18095l9.33333,-15.09524h80.92722l8,15.09524z" fill="#ffffff" stroke="#000000" stroke-width="2"/><g fill="#ffffff" stroke="#000000" stroke-width="1"><path d="M251.35312,141.15306l-24.83277,-4.40765l1.16996,-6.29201l24.83279,4.40765z"/><path d="M230.23307,134.24147c-0.43949,2.29784 -2.67936,3.80035 -5.00286,3.35594c-2.3235,-0.44442 -3.85078,-2.66745 -3.41128,-4.9653c0.4395,-2.29784 2.67936,-3.80035 5.00286,-3.35594c2.3235,0.44442 3.85078,2.66745 3.41128,4.9653z"/><path d="M226.29108,132.05088c0.81367,0.15563 1.35554,0.89743 1.21028,1.65687c-0.14526,0.75944 -0.92263,1.24891 -1.7363,1.09328c-0.81367,-0.15563 -1.35554,-0.89743 -1.21028,-1.65687c0.14526,-0.75944 0.92263,-1.24891 1.7363,-1.09328z"/></g><g fill="#ffffff" stroke="#000000" stroke-width="1"><path d="M256.06132,164.16161l-7.50649,-24.07794l6.12521,-1.85474l7.50649,24.07794z"/><path d="M255.32596,136.91632c0.67393,2.26759 -0.59769,4.64613 -2.84024,5.31262c-2.24256,0.6665 -4.60683,-0.63146 -5.28077,-2.89905c-0.67393,-2.26759 0.59769,-4.64613 2.84024,-5.31262c2.24256,-0.6665 4.60683,0.63145 5.28077,2.89905z"/><path d="M252.61802,137.72112c0.23601,0.7941 -0.1735,1.61641 -0.91466,1.83669c-0.74117,0.22027 -1.53331,-0.24491 -1.76932,-1.039c-0.23601,-0.7941 0.1735,-1.61641 0.91466,-1.83669c0.74117,-0.22027 1.53331,0.24491 1.76932,1.039z"/></g><g fill="#ffffff" stroke="#000000" stroke-width="1"><path d="M237.81397,176.80223l18.69243,-16.93185l4.25755,4.77824l-18.69243,16.93185z"/><path d="M256.21211,164.33885c-1.54737,-1.75469 -1.36342,-4.44553 0.41085,-6.01017c1.77427,-1.56464 4.46699,-1.41059 6.01436,0.3441c1.54737,1.75469 1.36342,4.44553 -0.41085,6.01017c-1.77427,1.56464 -4.46699,1.41059 -6.01436,-0.3441z"/><path d="M260.35799,162.56414c-0.62134,0.54793 -1.53961,0.522 -2.05101,-0.05792c-0.51141,-0.57992 -0.42227,-1.49422 0.19906,-2.04214c0.62134,-0.54793 1.53961,-0.522 2.05101,0.05792c0.51141,0.57992 0.42227,1.49422 -0.19906,2.04214z"/></g><path d="M247.9895,42.5c0,-0.13807 0.11193,-0.25 0.25,-0.25c0.13807,0 0.25,0.11193 0.25,0.25c0,0.13807 -0.11193,0.25 -0.25,0.25c-0.13807,0 -0.25,-0.11193 -0.25,-0.25z" fill="#000000" stroke="none" stroke-width="0.5"/></g></g></svg>