<svg version="1.1" xmlns="http://www.w3.org/2000/svg" xmlns:xlink="http://www.w3.org/1999/xlink" width="255.80111" height="255.40819" viewBox="0,0,255.80111,255.40819"><g transform="translate(-112.09945,-52.29591)"><g data-paper-data="{&quot;isPaintingLayer&quot;:true}" fill-rule="nonzero" stroke="none" stroke-linecap="butt" stroke-linejoin="miter" stroke-miterlimit="10" stroke-dasharray="" stroke-dashoffset="0" style="mix-blend-mode: normal"><path d="" fill="#ffffff" stroke-width="0.5"/><path d="" fill="#ffffff" stroke-width="0.5"/><path d="" fill="#ffffff" stroke-width="0.5"/><path d="" fill="#ffffff" stroke-width="0.5"/><path d="" fill="#ffffff" stroke-width="0.5"/><path d="" fill="#ffffff" stroke-width="0.5"/><path d="" fill="#ffffff" stroke-width="0.5"/><path d="" fill="#ffffff" stroke-width="0.5"/><path d="" fill="#ffffff" stroke-width="0.5"/><path d="" fill="#ffffff" stroke-width="0.5"/><path d="M112.09945,52.896c0,-0.33143 0.26869,-0.60009 0.60009,-0.60009c0.33143,0 0.60009,0.26869 0.60009,0.60009c0,0.33143 -0.26869,0.60009 -0.60009,0.60009c-0.33143,0 -0.60009,-0.26869 -0.60009,-0.60009z" fill="#000000" stroke-width="0.5"/><path d="M366.70038,307.104c0,-0.33143 0.26869,-0.60009 0.60009,-0.60009c0.33143,0 0.60009,0.26869 0.60009,0.60009c0,0.33143 -0.26869,0.60009 -0.60009,0.60009c-0.33143,0 -0.60009,-0.26869 -0.60009,-0.60009z" fill="#000000" stroke-width="0.5"/><path d="M121.42914,182.49056l36.02802,-5.91568c0,0 4.38562,23.56852 18.61235,42.03354c11.39445,14.78893 32.56571,24.9452 37.06544,27.21345c11.27682,5.6844 28.67242,12.08218 46.07724,16.16282c30.17532,7.07477 67.71112,-2.63636 67.71112,-2.63636c0,0 -17.27365,17.71461 -43.10384,21.76164c-28.44229,4.45627 -66.54708,7.79997 -83.67413,-0.83341c-14.89527,-7.50843 -24.48694,-6.95869 -39.53399,-24.3174c-19.20401,-22.15432 -39.18217,-73.46861 -39.18217,-73.46861z" fill="#008cff" stroke-width="0"/><path d="M144.487,170.89571l29.9423,-4.91642c0,0 3.64481,19.58742 15.46841,34.93339c9.46974,12.29086 27.06487,20.73157 30.8045,22.61665c9.37198,4.72422 23.82918,10.04131 38.29404,13.43268c25.07822,5.87971 56.27366,-2.19105 56.27366,-2.19105c0,0 -14.35586,14.72233 -35.82295,18.08573c-23.63794,3.70355 -55.30624,6.48243 -69.54024,-0.69263c-12.37923,-6.2401 -20.35071,-5.78328 -32.85604,-20.2098c-15.96014,-18.41211 -32.56367,-61.05861 -32.56367,-61.05861z" fill="#008cff" stroke-width="0"/><path d="M164.28004,161.89601l20.90693,-3.43285c0,0 2.54494,13.67676 10.80068,24.39196c6.61215,8.58198 18.8978,14.47566 21.50901,15.79188c6.54391,3.29865 16.63851,7.01125 26.73849,9.37923c17.51067,4.10546 39.29257,-1.52986 39.29257,-1.52986c0,0 -10.02383,10.27974 -25.01306,12.62819c-16.505,2.58596 -38.61709,4.52633 -48.55586,-0.48363c-8.64366,-4.35712 -14.20971,-4.03811 -22.94145,-14.11131c-11.14402,-12.85611 -22.73729,-42.63363 -22.73729,-42.63363z" fill="#008cff" stroke-width="0"/><path d="M179.0415,154.11845l14.34902,-2.35605c0,0 1.74667,9.38674 7.41285,16.74088c4.53812,5.89006 12.97007,9.93505 14.76221,10.83843c4.49127,2.26398 11.41951,4.81202 18.35138,6.43723c12.01808,2.81767 26.9676,-1.05001 26.9676,-1.05001c0,0 -6.87967,7.05528 -17.16717,8.66713c-11.32784,1.77484 -26.504,3.10654 -33.32527,-0.33193c-5.9324,-2.99039 -9.75253,-2.77148 -15.74537,-9.68496c-7.64846,-8.82351 -15.60526,-29.26069 -15.60526,-29.26069z" fill="#008cff" stroke-width="0"/><path d="M187.28404,148.38807l9.83136,-1.61429c0,0 1.19675,6.43139 5.07895,11.47015c3.10931,4.03562 8.88658,6.8071 10.11445,7.42605c3.07722,1.55117 7.82418,3.29701 12.5736,4.41053c8.23424,1.93056 18.4771,-0.7194 18.4771,-0.7194c0,0 -4.71365,4.83396 -11.76223,5.93835c-7.76136,1.21603 -18.15946,2.12846 -22.83309,-0.22743c-4.06461,-2.0489 -6.68202,-1.89887 -10.78805,-6.63574c-5.2404,-6.04551 -10.69208,-20.04818 -10.69208,-20.04818z" fill="#008cff" stroke-width="0"/><path d="M190.93153,143.63775l6.45043,-1.05913c0,0 0.78519,4.2197 3.33235,7.52565c2.04004,2.6478 5.83053,4.46619 6.63615,4.87228c2.01901,1.01773 5.13346,2.16318 8.24961,2.89377c5.40257,1.26666 12.12293,-0.47203 12.12293,-0.47203c0,0 -3.09268,3.1716 -7.71728,3.89618c-5.09227,0.79784 -11.91455,1.39651 -14.98092,-0.14922c-2.66682,-1.3443 -4.38412,-1.2459 -7.07813,-4.35376c-3.43827,-3.9665 -7.01515,-13.15376 -7.01515,-13.15376z" fill="#008cff" stroke-width="0"/><path d="M120.58601,77.67285l33.88569,13.59311c0,0 -8.451,22.43411 -5.84029,45.59747c2.09099,18.55191 14.94489,38.20261 17.62008,42.47295c6.70436,10.70189 18.27413,25.1822 31.05151,37.6849c22.15257,21.67639 59.29337,32.8031 59.29337,32.8031c0,0 -23.95002,6.21152 -48.14373,-3.70018c-26.64031,-10.91402 -60.97105,-27.7828 -71.15354,-44.03666c-8.85562,-14.1359 -17.34614,-18.63184 -21.23145,-41.27344c-4.95868,-28.89671 4.51839,-83.14123 4.51839,-83.14123z" fill="#008cff" stroke-width="0"/><path d="M146.31593,79.69181l28.16185,11.29701c0,0 -7.02349,18.64463 -4.85378,37.89532c1.73777,15.41822 12.42047,31.74959 14.64378,35.29857c5.57189,8.89416 15.18732,20.92851 25.8064,31.31932c18.41065,18.01489 49.27779,27.26214 49.27779,27.26214c0,0 -19.90448,5.1623 -40.01151,-3.07518c-22.14035,-9.07047 -50.67209,-23.08986 -59.13458,-36.59817c-7.35978,-11.74809 -14.41608,-15.48464 -17.64511,-34.30168c-4.12107,-24.01558 3.75518,-69.09737 3.75518,-69.09737z" fill="#008cff" stroke-width="0"/><path d="M167.90906,82.24052l19.66376,7.88803c0,0 -4.90411,13.01845 -3.38913,26.46009c1.21338,10.76562 8.67248,22.16889 10.22492,24.64694c3.89052,6.21028 10.60442,14.61314 18.01911,21.86844c12.85509,12.57874 34.40776,19.03554 34.40776,19.03554c0,0 -13.89812,3.60454 -27.93767,-2.14724c-15.45932,-6.3334 -35.38135,-16.12227 -41.29019,-25.55436c-5.13886,-8.203 -10.06592,-10.81202 -12.32056,-23.95085c-2.87748,-16.76868 2.62201,-48.24662 2.62201,-48.24662z" fill="#008cff" stroke-width="0"/><path d="M184.56478,83.22966l13.49578,5.41379c0,0 -3.36582,8.93492 -2.32602,18.16031c0.83278,7.38875 5.95214,15.21512 7.01762,16.91589c2.67016,4.26231 7.27814,10.02942 12.36703,15.00892c8.82284,8.63314 23.61504,13.06462 23.61504,13.06462c0,0 -9.5387,2.47388 -19.17443,-1.47367c-10.61016,-4.34675 -24.28322,-11.06517 -28.33864,-17.53869c-3.52697,-5.62994 -6.90852,-7.42058 -8.45596,-16.43813c-1.97492,-11.50883 1.79958,-33.11305 1.79958,-33.11305z" fill="#008cff" stroke-width="0"/><path d="M194.58345,82.59491l9.24676,3.7093c0,0 -2.30612,6.12184 -1.59371,12.44267c0.57058,5.06245 4.07818,10.4248 4.80818,11.59007c1.82948,2.92033 4.98668,6.87176 8.47337,10.28349c6.045,5.91505 16.18004,8.95136 16.18004,8.95136c0,0 -6.5355,1.69499 -13.13752,-1.0097c-7.26963,-2.97823 -16.63787,-7.58142 -19.41646,-12.01678c-2.41651,-3.85739 -4.73344,-5.08424 -5.79364,-11.26271c-1.35312,-7.88538 1.23298,-22.68766 1.23298,-22.68766z" fill="#008cff" stroke-width="0"/><path d="M200.16351,80.41945l6.06687,2.43371c0,0 -1.51307,4.01658 -1.04564,8.16373c0.37435,3.32151 2.6757,6.83977 3.15467,7.60433c1.20037,1.91607 3.27177,4.50859 5.55943,6.74706c3.96619,3.88093 10.61584,5.87301 10.61584,5.87301c0,0 -4.28799,1.11209 -8.61962,-0.66248c-4.76965,-1.95404 -10.91622,-4.9742 -12.73925,-7.88427c-1.58549,-2.53087 -3.10562,-3.33584 -3.80127,-7.38955c-0.88779,-5.17365 0.80897,-14.88554 0.80897,-14.88554z" fill="#008cff" stroke-width="0"/></g></g></svg>